<svg width="44" height="42" viewBox="0 0 44 42" fill="none" xmlns="http://www.w3.org/2000/svg">
<path d="M30.9879 2.24647C31.1778 0.387202 28.9039 -0.656411 27.6181 0.699833L19.4507 9.31401C18.874 9.92227 17.9742 10.0961 17.2124 9.74651L6.13691 4.66334C4.3919 3.86246 2.65617 5.78976 3.63472 7.44171L9.64521 17.5884C10.0913 18.3414 9.9836 19.2991 9.38138 19.9342L1.40365 28.3484C0.103826 29.7194 1.30672 31.9544 3.1669 31.6246L15.2182 29.4882C16.0217 29.3458 16.8294 29.7164 17.2453 30.4185L23.4831 40.9489C24.4459 42.5743 26.9248 42.0291 27.1168 40.1497L28.2949 28.6147C28.3838 27.744 29.0397 27.038 29.9015 26.8852L41.5137 24.8266C43.4042 24.4914 43.7338 21.9187 41.9888 21.1179L30.9134 16.0347C30.1516 15.6851 29.6967 14.8894 29.7818 14.0556L30.9879 2.24647Z" fill="#FFC700"/>
</svg>
