<svg width="25" height="25" viewBox="0 0 25 25" fill="none" xmlns="http://www.w3.org/2000/svg">
<path d="M8.5925 0.524609C7.91066 -0.142912 6.77036 0.432745 6.90258 1.37773L7.88105 8.37137C7.94035 8.79519 7.72339 9.20977 7.34136 9.40263L0.854127 12.6776C-0.0209572 13.1194 0.196076 14.4257 1.167 14.5608L8.14954 15.5321C8.59215 15.5937 8.94018 15.9415 9.0021 16.384L9.96108 23.2383C10.0947 24.1936 11.3698 24.4246 11.8302 23.5771L15.3036 17.182C15.5024 16.8158 15.9074 16.6114 16.3201 16.6688L23.5282 17.6715C24.4835 17.8044 25.0547 16.6413 24.3655 15.9665L19.42 11.1248C19.1006 10.8121 19.0275 10.3256 19.2408 9.93292L22.6055 3.7379C23.0733 2.87649 22.1511 1.92616 21.2761 2.36793L14.7888 5.6429C14.4068 5.83576 13.9444 5.76415 13.6386 5.46478L8.5925 0.524609Z" fill="#FFC700"/>
</svg>
